<?xml version="1.0" encoding="UTF-8"?>
<svg width="1460px" height="898px" viewBox="0 0 1460 898" version="1.1" xmlns="http://www.w3.org/2000/svg" xmlns:xlink="http://www.w3.org/1999/xlink">
    <!-- Generator: Sketch 51 (57462) - http://www.bohemiancoding.com/sketch -->
    <title>aut_1 copy</title>
    <desc>Created with Sketch.</desc>
    <defs>
        <path d="M387.709062,733.66586 C387.720604,733.736554 429.490931,804.678663 513.020043,946.492188 L1894.5,946.492188 L2067.27657,946.492188 L2067.27657,-92.265625 L1576.56089,-92.265625 L456.609002,510.341587 C407.120849,534.925522 372.147171,581.106963 366.100735,638.364159 C362.458591,673.008896 370.770817,706.114973 387.709062,733.66586 Z" id="path-1"></path>
    </defs>
    <g id="aut_1-copy" stroke="none" stroke-width="1" fill="none" fill-rule="evenodd">
        <rect fill="#FFFFFF" opacity="0.1" x="0" y="0" width="1460" height="898"></rect>
        <mask id="mask-2" fill="white">
            <use xlink:href="#path-1"></use>
        </mask>
        <use id="Fill-3" fill="rgb(255,79,18)" xlink:href="#path-1"></use>
        <path d="M524.812256,-92.265625 C427.255585,238.487847 350.242513,499.570967 350.201396,499.70514 C325.615297,583.102244 342.761293,668.524925 389.304135,734.200388 C386.586052,722.055578 384.357051,709.876142 383.049948,697.67723 C382.370427,694.173587 381.935447,691.19365 381.794782,688.945172 C381.621656,686.125378 381.636804,683.316403 381.584866,680.513921 C380.136802,614.119898 409.298482,550.93792 463.601331,511.746667 C472.679453,505.194839 482.460213,499.313497 492.918063,494.199723 L1580.99307,-92.265625 L524.812256,-92.265625 Z" id="Mask" fill="#7700FF"></path>
    </g>
</svg>